<svg xmlns="http://www.w3.org/2000/svg" xmlns:xlink="http://www.w3.org/1999/xlink" width="1270.293" height="402.924" viewBox="0 0 952.72 302.193" preserveAspectRatio="xMidYMid meet" xmlns:v="https://vecta.io/nano"><path d="M732.557 1.293c-42.4 7.8-73.9 39.7-81.2 82.3-1.4 7.7-1.5 18.4-1.2 71.8.3 60.5.4 63.1 2.4 70.8 10.3 38.2 38 65.3 75.8 74.1 7.4 1.8 13.1 1.9 73 1.9 59.8 0 65.6-.1 73-1.9 37.3-8.6 65.7-36.4 75.8-74.1 2-7.7 2.1-10.5 2.4-70.8.4-67.3.1-72.3-4.8-87-10.9-32.7-37-56.8-71.4-66-7.7-2-10.2-2.1-72-2.3-51.9-.2-65.5 0-71.8 1.2zm75.1 62.4c1.8 1.1 4.1 3.4 5.2 5.2 7.1 11.7-7.1 25.9-18.8 18.8-4.2-2.6-7.2-7.6-7.2-12 0-7.1 6.9-14 14-14 1.9 0 5 .9 6.8 2zm-39.3 26.9v10l-7.1 5c-22.1 15.5-33.6 42.1-29.2 67.6 2 11.7 4.9 18.9 10.9 28 15.2 22.7 42.4 34.8 68.4 30.3 10.5-1.8 18.1-4.6 25-8.9l5-3.2-7.8-7.1c-4.2-3.9-7.7-7.4-7.7-7.7 0-.4 1.8-1.4 4-2.3 5.2-2.1 12.8-2 20.2 0 5.8 1.7 5.9 1.6 8.2-.5 1.3-1.2 3.7-5.2 5.4-8.9 14.7-31.9 5.2-67.4-23.3-87.4l-7-4.9v-9.8-9.8l4.3 1.8c18.1 7.8 36.2 26.5 44.1 45.8 5.2 12.5 6.5 19.4 6.5 34.1 0 18-3.4 31-12 45.2l-3.5 5.7 4.8 4.4a378.12 378.12 0 0 0 10.5 9.3c3.1 2.7 5.5 5.3 5.4 5.8-.1.4-2.4 1.7-5.1 2.8-6.9 2.7-17.6 2-24.9-1.6-2.9-1.4-5.8-2.6-6.4-2.6s-4.3 2.1-8.2 4.6c-8.1 5.2-17.6 9.3-27.6 12-9.6 2.5-31.2 2.5-40.8 0-33.3-8.9-56.7-32.4-65.2-65.6-1.4-5.4-1.9-11-1.9-20s.5-14.6 1.9-20c6.8-26.5 22.9-46.8 46.6-58.7l6.5-3.3v9.9zm30.2 21.3c7.5 3.5 13.1 11.6 15.8 23 1.2 5 1.5 14.4 1.5 45.1v38.9l-3.2-.7c-11.1-2.4-18.9-11.5-22.3-25.7-1.2-5-1.5-14.3-1.5-44.4 0-20.9.3-38.4.7-38.7.8-.9 3.5-.1 9 2.5zm-784.7-1.3c-6.5 2.3-11.4 7.2-13 13-.7 2.8-1 16.7-.8 42.4l.3 38.2 2.5 4.5c4.6 8.3 18.1 12.2 30.3 8.6 7.4-2.2 11.1-5.5 13.7-12.3 2-5.5 2.1-7.1 1.8-43.3l-.3-37.7-3-4.9c-5.6-9.1-19.3-12.8-31.5-8.5zm22.1 3.9c3.1 1.5 5.3 3.5 7 6.5l2.4 4.2v38 38l-2.5 5c-3.5 7-7.8 9-19 9-11.7-.1-16.6-2.9-19.6-11.2-1.8-5.2-2-73.5-.2-79.6 1.6-5.2 6.5-10.2 11.5-11.5 5.9-1.7 15.1-.9 20.4 1.6zm262.4-4.6c-4.8 1.7-9.3 5.6-11.8 10.1-2.2 4.1-2.2 5-2.5 42.1-.3 42.3-.1 44.5 6.3 50.7 8.1 7.9 22.7 7.9 30.6 0 5.5-5.5 6.9-11.4 6.9-29.8v-15.3h-9.5c-7.8 0-9.5.3-9.5 1.5s1.6 1.5 8 1.5h8v14.4c0 14.7-.7 18.9-4.3 24-4.2 6.1-15.3 8.3-23.2 4.7-10.1-4.6-10.5-6.7-10.5-50.1 0-37 .2-39.5 4.3-45.4 4-5.6 14-8.2 21.1-5.2 5.9 2.4 11.6 11.5 11.6 18.5 0 1.3.6 2.1 1.6 2.1 4.2 0-1.8-16.6-7.4-20.7s-13.4-5.3-19.7-3.1zm287 0c-8 2.8-12.4 9.1-13.2 19-.7 7 1 13.5 4.8 18.8 1.6 2.2 8.8 8.4 16.1 13.9 17.5 13.1 21.8 19.5 21.8 32.6-.1 13.1-10 21.6-23.8 20.2-9.5-1-15.5-7.1-16.8-17.1-.4-2.9-1.2-4.6-2-4.6-3.1 0 0 12.9 4.2 18 3.6 4.3 7.4 6 14.8 6.7 12.1 1.1 22.8-5.5 25.6-15.9 2.5-9.2-.4-21.4-7-29.8-1.7-2.1-8.5-7.9-15.3-12.9-14.3-10.6-18.5-15.8-19.4-24.2-1.4-13.6 6.1-22.9 18.2-22.9 10.9 0 17.5 7 17.5 18.7 0 2.3.5 3.3 1.5 3.3 3.7 0 .8-14.5-3.9-19.5-4.8-5-15.4-7-23.1-4.3zm-515.5 53.2c0 47 .2 53.6 1.5 53.6s1.5-3.2 1.5-23v-23h9.8c16.2 0 21.7-2.7 27-13 8.1-16.1 3.6-38.4-9.3-45-4.4-2.2-6.4-2.5-17.7-2.9l-12.8-.3v53.6zm25.3-49.3c5.3 1.4 10 6 12.8 12.1 1.9 4.3 2.4 7 2.4 14.3 0 8.2-.3 9.7-3.3 15.7-4.8 9.8-7.5 11.2-22.4 11.7l-11.8.3v-27.6-27.6h9.3c5 0 10.9.5 13 1.1z"/><use xlink:href="#B"/><use xlink:href="#C"/><use xlink:href="#B" x="214"/><use xlink:href="#C" x="214"/><path d="M502.057 155.893l.3 46.3 2.4 4.8c3.1 6.4 8.2 9.7 15.9 10.4 11 1 19.9-4.5 22.7-14 2.2-7.6 2.2-93.7 0-93.7-1.3 0-1.5 5.7-1.5 45.4 0 29.6-.4 46.5-1.1 48.3-5.2 13.7-26.9 15.3-33.6 2.4l-2.3-4.4v-45.9c0-40.5-.2-45.8-1.5-45.8-1.4 0-1.5 5.2-1.3 46.2z"/><defs ><path id="B" d="M141.857 163.193v53.5h20.5c17.6 0 20.5-.2 20.5-1.5s-2.8-1.5-19-1.5h-19v-21-21h15c12.7 0 15-.2 15-1.5s-2.3-1.5-15-1.5h-15v-28-28h19c16.2 0 19-.2 19-1.5s-2.9-1.5-20.5-1.5h-20.5v53.5z"/><path id="C" d="M209.857 163.093c0 46.8.2 53.6 1.5 53.6s1.5-6.3 1.7-48.5l.3-48.5 21.4 48.5c12.8 28.9 22 48.5 22.8 48.5 1.1 0 1.3-9.7 1.3-53.5 0-46.7-.2-53.5-1.5-53.5s-1.5 6.3-1.7 48.5l-.3 48.5-21.6-48.2c-11.9-26.5-22.1-48.4-22.8-48.6-.8-.3-1.1 13.5-1.1 53.2z"/></defs></svg>