<svg xmlns="http://www.w3.org/2000/svg" viewBox="0 0 400 200" xmlns:v="https://vecta.io/nano"><style><![CDATA[.D{stroke-linecap:round}.E{stroke-miterlimit:10}.F{stroke:#c1cbd4}.G{stroke-width:4}.H{stroke-linejoin:round}]]></style><g fill="none" class="G H"><path d="M154 198h80" class="D E F"/><g stroke="#f1f3f5"><circle cx="109" cy="127" r="1"/><circle cx="116" cy="99" r="1"/><circle cx="78" cy="119" r="1"/></g><path d="M242 198h8m-108 0h4" class="D E F"/><path d="M109 149l-2.5 5.7M98 105l-10-4m3-41l-5.5 4.4" stroke="#f1f3f5" class="D E"/><g class="F D E"><path d="M29 142H2m268 0h83m-43 0v-32"/><path d="M310 130h4c2.2 0 4-1.8 4-4v-8m-8 6h-4c-2.2 0-4-1.8-4-4v-4m96 26h-35"/></g></g><path d="M375 161h-12v-25c0-1.1.9-2 2-2h4a12.04 12.04 0 0 0 12-12V98.8c0-2.3-2-4.2-4.4-4-2.1.2-3.6 2.1-3.6 4.2v21a6.02 6.02 0 0 1-6 6h-2c-1.1 0-2-.9-2-2V75.2c0-2.6-1.9-4.9-4.5-5.2-3-.3-5.5 2.1-5.5 5v38c0 1.1-.9 2-2 2h-2a6.02 6.02 0 0 1-6-6V98.2c0-2.1-1.5-4-3.6-4.2-2.4-.2-4.4 1.6-4.4 4v13a12.04 12.04 0 0 0 12 12h4c1.1 0 2 .9 2 2v36h-6M47 150h-8v-31c0-1.1.9-2 2-2h4a12.04 12.04 0 0 0 12-12V95c0-2.3-2-4.2-4.4-4-2.1.2-3.6 2.1-3.6 4.2v7.8a6.02 6.02 0 0 1-6 6h-2c-1.1 0-2-.9-2-2V83c0-2.9-2.5-5.3-5.5-5-2.6.2-4.5 2.6-4.5 5.2V115c0 1.1-.9 2-2 2h-2a6.02 6.02 0 0 1-6-6v-1.8c0-2.1-1.5-4-3.6-4.2-2.4-.2-4.4 1.6-4.4 4v4a12.04 12.04 0 0 0 12 12h4c1.1 0 2 .9 2 2v23h-4" fill="#f9fafa" class="D E F G H"/><g fill="none" class="D E F G H"><path d="M92 142H39M210.8 12.4h-11.6c-9.9 0-16.3.8-25 4m-44.9 37a81.89 81.89 0 0 1 27.3-28.8m-5 132.1c-10.9-8.1-19.7-18.9-25.4-31.5m73 47.2h2.4c8.2-.2 16.4-1.9 24.1-4.7 3.6-1.3 7-3 10.3-4.9l3.1-1.8m36.8-91.3c2.1 7.2 3.3 14.8 3.3 22.7 0 15.1-4.2 29.1-11.4 41.2M227.2 17.4c12.4 4.6 23.3 12.2 31.9 22M151.7 76.6a48.97 48.97 0 0 1 4.4-9.6c1.9-3.3 6.4-3.9 9.3-1.4h0c2.5 2.2 6.4 2 8.6-.5l6.1-6.8c.9-1 2.2-1.7 3.6-2l15.5-2.4m-31.4 77.4c-6.9-5.5-11.9-12.5-15-20.2-2.1-5.3-3.3-10.9-3.6-16.6m62.6 46.3c-8.2 2.1-16.9 2.2-25.3 0m31.7-94.7c4.3 1.8 8.5 4.2 12.3 7.3 6 4.8 10.5 10.7 13.6 17.1m-70.5-21.1c7.1-4.2 15.1-6.6 23.2-6.9m2.4 34.9a14.98 14.98 0 0 1 15 15m-15 15c-6.6 0-12.1-4.2-14.2-10.1-1.3-3.8-3.4-7.3-6.3-10l-1-.9c-1.7-1.6-1.4-4.4.5-5.6l8.5-5.4"/><path d="M184.2 13.8l3.1 7.5c1.5 3.7-.6 8-4.5 9l-11.6 3m-18.5 4l5.7-5a6.71 6.71 0 0 1 7.4-1l.9.5c1.9 1 3.3 2.8 3.6 4.9l.1.7c.4 2.7-.9 5.4-3.2 6.8l-9.2 5.4c-.9.5-2 .9-3.1.9l-8.8.4c-3.5.2-6.2 2.9-6.4 6.4l-.4 9.9m5.9 11.8v-4.2c0-3-2.1-5.7-5-6.5h0c-4-1-8 1.7-8.3 5.9L131 84m88.9-56.6l-5.8-3c-2.4-1.2-3.9-3.8-3.7-6.6l.6-7.5c.4-4.4 4.8-7.3 9-5.8l14.6 5.3m.6 18.6l.2 4.5c.2 4.6-4.2 8.1-8.6 6.8h0c-3.7-1.1-7.6 1.1-8.5 4.9l-3.5 14.8c-.8 3.5-4.3 5.8-7.9 5l-6.2-1.3M210.8 45h-6.9c-3.4 0-6.3-2.5-6.7-5.9l-.1-1c-.5-4 2.6-7.5 6.7-7.5h4m56 56l-6.7-12.5c-2.2-4.1-7.3-5.9-11.6-4l-3.6 1.6c-3.9 1.8-6.1 6-5.1 10.2l1.3 5.8m22.2-28l-3.6-5.4c-3.5-5.2-2.1-12.2 3-15.7h0c5.1-3.5 12.1-2.2 15.7 2.8l3.1 4.4m-10.7 3l9.5 8.4c4.1 3.6 2.8 10.3-2.4 12.2l-8.4 3m-34.4-17.6l8.1-.8"/><path d="M249.9 30.6l-5.4 2.8m-2.7-8.8l8.4-2.9m-53.3-9.3L201 7m-13.7 14.3l9.6 1.1m-11.6 22l-3.6-5m-.8 18.2l-13.1-.1m-11.2-7.3l-4.9 8.3m-3.3-27.9l-.4-8.2m16.5-9.6l5.3 1.4c3 .8 4.8 4 3.8 7l-1.3 4.3m-34.4 50.6v4.7c0 6.5 5.2 11.9 11.7 12h0c6.2.2 11.4-4.4 12.2-10.5l.9-7m9.9 82l-4.3-9.2c-2.8-6-2.4-13 1.2-18.5l2.1-3.3c1.1-1.7 2.7-2.9 4.6-3.5l16.6-5.1m-16.2 26.8h2.5c3.4 0 6.4-2.3 7.3-5.7h0l1.8-4.8c1.2-3.3 4.2-5.6 7.6-5.9l3.4-.4m60.4-31.8c2.4 6.8-2 14.1-9.1 15.2l-5 .7c-3.4.5-6.9-.5-9.4-2.8l-5.9-5.3"/><path d="M258.8 105.3l5.7-3.7 8.6-7.1m-65.8 23.9l-4.4-3.6c-1.9-1.6-2.9-3.9-2.7-6.4h0c.3-3.9 3.4-6.9 7.2-7.1l6.7-.3m.1 11.1l14.3 3c1.7.3 3.2 1.2 4.3 2.5l6.7 7.9c3 3.6 2.1 9-1.9 11.4l-4.5 2.7m-7.9 10.9h-5.6c-3.9 0-7.2-3-7.6-6.9l-.9-9.3a7.58 7.58 0 0 1 6.2-8.2l4.7-.9m26.4 9.2l9.4-3.8 4.8 2.2h2.3c4.8.1 7.2 8.4 4.2 12.1l-.2.2L257 155M227.2 51l-4.7 16.1 1.3 12.8m-36.5-11l1.1.2c4.5.8 8.1 4.2 9.2 8.7h0c1 4.3-.6 8.9-4.1 11.6l-3.2 2.5m59.9 72.3H243c-2.5 0-4.7-1.8-5.3-4.2l-.6-2.5c-.6-2.7.2-5.5 2-7.5m-52.6 1.9l3.2 1.4c5.5 2.4 8.9 7.9 8.7 13.9h0c-.1 1.7-.4 3.3-1 4.8-3.5 9.1-17 7.3-18.3-2.3h0m8.2-2.8l-4.6-5.8c-2.6-3.2-6.9-4.4-10.7-2.8h0c-2.8 1.1-4.9 3.5-5.6 6.4l-2.8 10.9m-9.5-5.2l-1-1c-3.7-3.7-3.5-9.7.4-13.2h0c3-2.6 3.9-6.8 2.3-10.4l-3.4-7.7m.4-27l12.9-1.4M135.6 141l-1.6 9.5M116 77l-8 2m24-30.2l-.8-8.1m148 43.9l4.1 3.1m-7.8 28.5h-8.8m-39.5 50.9l-2 6.6m-11-2.8l-5-4.2m-10-24.3l3-5.7m-44-15.6l-3 3.6m25-31l-10 8m-33.9 16.7l-6.5-5.5m148-5.5l6.2 6.6m-37.8-15.3l-1.3-9.2c-.4-2.6-2.8-4.3-5.4-3.8h0c-3.3.7-6.2 2.8-7.7 5.9l-1.6 3.2m-48 24.9l-2-8"/><path d="M165.2 167.7l5 4M221 5l3-3m29.5 108.7l-2.3 10m4.8 9.3v6m6 13l1 7m-1-8l-13-3m132 16h2"/></g></svg>